<?xml version="1.0" encoding="UTF-8" standalone="no"?>
<!-- Created with Inkscape (http://www.inkscape.org/) -->

<svg
   width="18.592369mm"
   height="18.592373mm"
   viewBox="0 0 18.592369 18.592373"
   version="1.1"
   id="svg1"
   inkscape:version="1.3.2 (091e20e, 2023-11-25, custom)"
   sodipodi:docname="logo_small_website.svg"
   xmlns:inkscape="http://www.inkscape.org/namespaces/inkscape"
   xmlns:sodipodi="http://sodipodi.sourceforge.net/DTD/sodipodi-0.dtd"
   xmlns="http://www.w3.org/2000/svg"
   xmlns:svg="http://www.w3.org/2000/svg">
  <sodipodi:namedview
     id="namedview1"
     pagecolor="#ffffff"
     bordercolor="#000000"
     borderopacity="0.25"
     inkscape:showpageshadow="2"
     inkscape:pageopacity="0.0"
     inkscape:pagecheckerboard="0"
     inkscape:deskcolor="#d1d1d1"
     inkscape:document-units="mm"
     inkscape:zoom="2.8329125"
     inkscape:cx="38.476304"
     inkscape:cy="42.359233"
     inkscape:window-width="1450"
     inkscape:window-height="1020"
     inkscape:window-x="276"
     inkscape:window-y="42"
     inkscape:window-maximized="0"
     inkscape:current-layer="layer1" />
  <defs
     id="defs1" />
  <g
     inkscape:label="Layer 1"
     inkscape:groupmode="layer"
     id="layer1"
     transform="translate(-70.908334,-47.095834)">
    <path
       fill-rule="nonzero"
       fill="#000000"
       fill-opacity="1"
       stroke-width="0.924726"
       stroke-linecap="butt"
       stroke-linejoin="miter"
       stroke="#000000"
       stroke-opacity="1"
       stroke-miterlimit="4"
       d="m 74.273943,52.25269 c -0.210855,0.785812 -1.017482,1.251363 -1.803269,1.040433 -0.78467,-0.209948 -1.250269,-1.017481 -1.040434,-1.802176 0.210863,-0.784711 1.017482,-1.251362 1.802176,-1.040433 0.78576,0.209945 1.251363,1.017482 1.041527,1.802176 z m 0,0"
       id="path46-0-8-2-9-1"
       style="fill:#dcdcdc;fill-opacity:1;stroke:#dcdcdc;stroke-opacity:1" />
    <path
       fill-rule="nonzero"
       fill="#ffffff"
       fill-opacity="1"
       stroke-width="0.924729"
       stroke-linecap="butt"
       stroke-linejoin="miter"
       stroke="#000000"
       stroke-opacity="1"
       stroke-miterlimit="4"
       d="m 77.678298,56.392569 c 0,0.81311 -0.659014,1.47103 -1.471027,1.47103 -0.813114,0 -1.472127,-0.65792 -1.472127,-1.47103 0,-0.813111 0.659013,-1.472128 1.472127,-1.472128 0.812013,0 1.471027,0.659017 1.471027,1.472128 z m 0,0"
       id="path47-6-5-1-9-8"
       style="fill:none;stroke:#dcdcdc;stroke-opacity:1" />
    <path
       fill="none"
       stroke-width="2.62128"
       stroke-linecap="butt"
       stroke-linejoin="miter"
       stroke="#000000"
       stroke-opacity="1"
       stroke-miterlimit="4"
       d="m 88.916503,56.392569 c 0,4.810908 -3.900526,8.711438 -8.712531,8.711438 -4.810908,0 -8.711438,-3.90053 -8.711438,-8.711438 0,-4.812005 3.90053,-8.712535 8.711438,-8.712535 4.812005,0 8.712531,3.90053 8.712531,8.712535 z m 0,0"
       id="path48-3-5-8-5-7"
       style="stroke:#dcdcdc;stroke-width:1.1684;stroke-dasharray:none;stroke-opacity:1" />
    <path
       fill-rule="nonzero"
       fill="#000000"
       fill-opacity="1"
       stroke-width="0.924726"
       stroke-linecap="butt"
       stroke-linejoin="miter"
       stroke="#000000"
       stroke-opacity="1"
       stroke-miterlimit="4"
       d="m 74.301266,60.528066 c 0.209952,0.784666 -0.255736,1.592344 -1.041524,1.80218 -0.784719,0.210862 -1.592347,-0.254642 -1.802179,-1.040434 -0.210862,-0.784712 0.255736,-1.592343 1.040433,-1.802176 0.785806,-0.210855 1.592344,0.254642 1.80327,1.04043 z m 0,0"
       id="path45-3-7-7-3-6"
       style="fill:#dcdcdc;fill-opacity:1;stroke:#dcdcdc;stroke-opacity:1" />
    <path
       id="path62"
       style="fill:none;stroke:#dcdcdc;stroke-width:1.1807;stroke-opacity:1"
       d="m 76.376573,54.930094 a 4.0990554,4.0990554 0 0 1 4.534452,-2.575115 4.0990554,4.0990554 0 0 1 3.393017,3.959786 4.0990554,4.0990554 0 0 1 -3.239616,4.08624 4.0990554,4.0990554 0 0 1 -4.629312,-2.400403" />
  </g>
</svg>
